<?xml version="1.0" encoding="UTF-8" standalone="no"?>
<!DOCTYPE svg PUBLIC "-//W3C//DTD SVG 1.1//EN" "http://www.w3.org/Graphics/SVG/1.1/DTD/svg11.dtd">
<svg width="100%" height="100%" viewBox="0 0 1200 630" version="1.1" xmlns="http://www.w3.org/2000/svg"
  xmlns:xlink="http://www.w3.org/1999/xlink" xml:space="preserve" xmlns:serif="http://www.serif.com/"
  style="fill-rule:evenodd;clip-rule:evenodd;stroke-linecap:round;stroke-linejoin:round;stroke-miterlimit:1.5;">
  <g transform="matrix(0.984798,0,0,0.980813,18.2421,12.0877)">
    <rect x="-18.524" y="-12.324" width="1218.52" height="642.324"
      style="fill:white;stroke:white;stroke-width:1.02px;" />
  </g>
  <g transform="matrix(0.19766,-0.19766,0.19766,0.19766,121.467,124.965)">
    <g transform="matrix(1,0,0,1,-256,-256)">
      <clipPath id="_clip1">
        <rect x="0" y="0" width="512" height="512" />
      </clipPath>
      <g clip-path="url(#_clip1)">
        <g>
          <path d="M199.43,420.239L199.43,440.764L312.566,440.764L312.566,420.239L199.43,420.239Z"
            style="fill:rgb(75,75,75);fill-rule:nonzero;" />
          <path
            d="M199.43,453.718L199.43,475.543C199.43,495.681 217.112,512.001 238.998,512.001L272.999,512.001C294.89,512.001 312.567,495.682 312.567,475.543L312.567,453.718L199.43,453.718Z"
            style="fill:rgb(75,75,75);fill-rule:nonzero;" />
          <path
            d="M256.033,97.542C187.583,97.542 131.955,148.833 131.955,211.909C131.955,279.969 173.593,361.825 191.468,393.814L195.805,401.587L313.346,401.587L317.683,393.814C333.097,366.228 380.047,282.236 380.047,211.909C380.046,148.833 324.418,97.542 256.033,97.542ZM348.583,223.122C345.793,260.121 330.058,300.966 315,332.924C313.41,336.29 311.782,339.679 310.079,343.115C307.912,347.506 305.815,351.6 303.788,355.504C301.695,359.523 299.555,363.578 297.319,367.687C296.321,369.525 295.334,371.328 294.433,372.965L214.782,372.965C196.389,338.832 162.972,268.959 162.972,211.91C162.972,164.569 204.676,126.104 256.033,126.104C307.32,126.104 349.024,164.57 349.024,211.91C349.024,215.315 348.874,218.777 348.63,222.264C348.61,222.553 348.606,222.831 348.583,223.122Z"
            style="fill:rgb(75,75,75);fill-rule:nonzero;" />
          <path
            d="M291.848,218.75C288.672,217.72 285.325,218.8 283.306,221.504C282.099,223.125 280.88,225.172 279.472,227.543C274.601,235.738 267.927,246.954 257.887,246.954C246.388,246.954 236.472,232.65 231.141,224.963C230.216,223.624 229.396,222.448 228.695,221.504C226.676,218.799 223.317,217.72 220.153,218.75C216.609,219.899 214.361,223.485 214.686,227.471L236.55,341.405L247.26,339.656L247.496,339.626L247.496,339.622L247.654,339.595L237.428,286.389L228.672,240.081C235.582,248.539 245.317,257.352 257.887,257.352C267.509,257.352 274.621,252.19 280.002,246.058C281.24,244.708 282.463,243.268 283.677,241.667L268.507,337.142L268.113,339.595L268.117,339.595L268.094,339.749L279.252,341.255L297.274,227.835L297.316,227.472C297.64,223.485 295.392,219.898 291.848,218.75Z"
            style="fill:rgb(75,75,75);fill-rule:nonzero;" />
          <path
            d="M325.922,193.423C321.26,171.578 302.538,154.322 278.836,150.028C274.932,149.316 272.371,153.688 275.187,156.281L319.135,196.789C321.949,199.381 326.693,197.025 325.922,193.423Z"
            style="fill:rgb(75,75,75);fill-rule:nonzero;" />
          <path
            d="M255.998,63.362C259.882,63.362 263.028,60.213 263.028,56.332L266.943,10.945C266.943,4.902 262.046,0 255.998,0C249.954,0 245.056,4.902 245.056,10.946L248.967,56.333C248.968,60.214 252.118,63.362 255.998,63.362Z"
            style="fill:rgb(75,75,75);fill-rule:nonzero;" />
          <path
            d="M126.441,112.905C129.184,115.652 133.637,115.652 136.384,112.905C139.127,110.162 139.127,105.713 136.384,102.97L107.057,68.106C102.782,63.835 95.853,63.835 91.581,68.106C87.306,72.382 87.306,79.311 91.581,83.586L126.441,112.905Z"
            style="fill:rgb(75,75,75);fill-rule:nonzero;" />
          <path
            d="M79.808,225.497L34.421,221.582C28.378,221.582 23.475,226.484 23.475,232.524C23.475,238.571 28.377,243.473 34.421,243.473L79.808,239.554C83.689,239.554 86.834,236.408 86.834,232.524C86.834,228.642 83.689,225.497 79.808,225.497Z"
            style="fill:rgb(75,75,75);fill-rule:nonzero;" />
          <path
            d="M404.939,68.106L375.616,102.97C372.873,105.713 372.873,110.162 375.616,112.905C378.363,115.652 382.812,115.652 385.559,112.905L420.419,83.586C424.694,79.311 424.694,72.382 420.419,68.106C416.144,63.834 409.214,63.834 404.939,68.106Z"
            style="fill:rgb(75,75,75);fill-rule:nonzero;" />
          <path
            d="M477.579,221.582L432.192,225.497C428.312,225.497 425.166,228.643 425.166,232.523C425.166,236.407 428.312,239.553 432.192,239.553L477.579,243.472C483.623,243.472 488.525,238.57 488.525,232.523C488.525,226.483 483.623,221.582 477.579,221.582Z"
            style="fill:rgb(75,75,75);fill-rule:nonzero;" />
          <path
            d="M126.441,353.085L91.581,382.404C87.306,386.679 87.306,393.609 91.581,397.884C95.853,402.155 102.782,402.155 107.057,397.884L136.384,363.02C139.127,360.278 139.127,355.828 136.384,353.085C133.637,350.334 129.184,350.334 126.441,353.085Z"
            style="fill:rgb(75,75,75);fill-rule:nonzero;" />
          <path
            d="M385.559,353.085C382.812,350.334 378.363,350.334 375.616,353.085C372.873,355.828 372.873,360.278 375.616,363.02L404.939,397.884C409.214,402.155 416.144,402.155 420.419,397.884C424.694,393.609 424.694,386.679 420.419,382.404L385.559,353.085Z"
            style="fill:rgb(75,75,75);fill-rule:nonzero;" />
        </g>
      </g>
    </g>
  </g>
  <g transform="matrix(1,0,0,1,121.293,16.4615)">
    <text x="101.375px" y="211.752px"
      style="font-family:'PixelMplus10-Regular', 'PixelMplus10', monospace;font-size:40px;">{{content}}</text>
  </g>
</svg>
